<svg width="50" height="50" viewBox="0 0 50 50" fill="#8155BA" xmlns="http://www.w3.org/2000/svg">
<path d="M37.4036 24.5224C37.3399 24.3687 37.2479 24.2303 37.1321 24.1148L25.8836 12.8664C25.3993 12.3984 24.6313 12.3984 24.1469 12.8664C23.6504 13.3459 23.6366 14.1373 24.1162 14.6338L33.2326 23.75H13.75C13.0597 23.75 12.5 24.3097 12.5 25C12.5 25.6903 13.0597 26.25 13.75 26.25H33.2326L24.1162 35.3662C23.8818 35.6006 23.7502 35.9184 23.7502 36.2498C23.75 36.9402 24.3097 37.4998 25 37.5C25.3316 37.5003 25.6496 37.3686 25.8836 37.1338L37.133 25.8844C37.2487 25.7689 37.3401 25.6306 37.4036 25.4773C37.4634 25.3322 37.4921 25.1787 37.4951 25.0243C37.4953 25.0157 37.5 25.0085 37.5 25C37.5 24.994 37.4968 24.989 37.4966 24.9831C37.4945 24.8262 37.4644 24.6696 37.4036 24.5224ZM25 0C11.1929 0 0 11.1929 0 25C0 38.8071 11.1929 50 25 50C38.8004 49.9838 49.9838 38.8004 50 25C50 11.1929 38.8071 0 25 0ZM25 47.5C12.5735 47.5 2.5 37.4265 2.5 25C2.5 12.5735 12.5735 2.5 25 2.5C37.4207 2.51404 47.486 12.5793 47.5 25C47.5 37.4265 37.4265 47.5 25 47.5Z" fill="#8155BA"/>
</svg>
